<svg id="c8c9b329-9c28-46eb-8d9a-992da1ec7811" data-name="objects" xmlns="http://www.w3.org/2000/svg" width="204.51" height="41.76" viewBox="0 0 204.51 41.76"><title>arturo182</title><path d="M29.75,103.73,26.12,126q2.86-.71,5.72-1.47l1.91-13.76h.12l1.8,12.73c1.9-.53,3.79-1.06,5.69-1.62l-3-18.19Z" transform="translate(-23.14 -103.15)" fill="#43525a"/><path d="M36.71,130.88H31l.87-6.31q-2.85.77-5.72,1.47l-3,18.29h5.91l1.16-7.94h7.25v-.12l1.16,8.06H45l-3.64-22.41c-1.9.56-3.79,1.09-5.69,1.62Z" transform="translate(-23.14 -103.15)" fill="#43525a"/><path d="M60.61,116.84a4.66,4.66,0,0,1-1,3.31,3.87,3.87,0,0,1-2.87,1H54.46V118l-6.38,1.93v24.4h6.38v-17.4h2.2a3.78,3.78,0,0,1,3.1,1.11,6.28,6.28,0,0,1,.9,3.88v7.43a27,27,0,0,0,.12,3.13,9.42,9.42,0,0,0,.46,1.85h6.5a7.07,7.07,0,0,1-.58-2.11A26.58,26.58,0,0,1,67,139.4v-7.13a14.44,14.44,0,0,0-1-5.74,5,5,0,0,0-3.28-2.85v-.11q4.17-1.68,4.18-8v-1.33q-3.21.95-6.38,1.9Z" transform="translate(-23.14 -103.15)" fill="#43525a"/><path d="M64.72,106c-1.5-1.52-3.9-2.29-7.19-2.29H48.08v16.2L54.46,118v-8.47h2.9a2.94,2.94,0,0,1,2.46,1,5.17,5.17,0,0,1,.79,3.19v2.43q3.16-1,6.38-1.9v-1.17Q67,108.32,64.72,106Z" transform="translate(-23.14 -103.15)" fill="#43525a"/><polygon points="46.52 0.58 46.52 6.38 53.19 6.38 53.19 41.18 59.56 41.18 59.56 6.38 66.23 6.38 66.23 0.58 46.52 0.58" fill="#43525a"/><path d="M94.65,142.27q-2.43-2.64-2.43-7.56v-31H98.6v31.44a4.4,4.4,0,0,0,.84,3,3.57,3.57,0,0,0,4.81,0,4.4,4.4,0,0,0,.84-3V103.73h6.15v31q0,4.92-2.44,7.56t-7.07,2.64C98.63,144.91,96.28,144,94.65,142.27Z" transform="translate(-23.14 -103.15)" fill="#43525a"/><path d="M134.73,139.4v-7.13a14.25,14.25,0,0,0-1-5.74,5,5,0,0,0-3.27-2.85v-.11a6.51,6.51,0,0,0,3.93-5.28c-2-.91-4.07-1.79-6.14-2.63v1.18a4.66,4.66,0,0,1-1,3.31,3.84,3.84,0,0,1-2.87,1h-2.32v-7.7a61,61,0,0,0-6.38-1.7v32.6h6.38v-17.4h2.21a3.78,3.78,0,0,1,3.1,1.11,6.28,6.28,0,0,1,.9,3.88v7.43a27,27,0,0,0,.12,3.13,8.76,8.76,0,0,0,.46,1.85h6.5a6.79,6.79,0,0,1-.58-2.11A26.58,26.58,0,0,1,134.73,139.4Z" transform="translate(-23.14 -103.15)" fill="#43525a"/><path d="M122.14,109.53H125a3,3,0,0,1,2.47,1,5.17,5.17,0,0,1,.78,3.19v2c2.07.84,4.11,1.72,6.14,2.63a14.26,14.26,0,0,0,.24-2.72v-2.5q0-4.75-2.26-7c-1.51-1.52-3.91-2.29-7.19-2.29h-9.46v8a61,61,0,0,1,6.38,1.7Z" transform="translate(-23.14 -103.15)" fill="#43525a"/><path d="M145.05,113c0-2.67,1.11-4,3.31-4s3.31,1.34,3.31,4v12.59a61.44,61.44,0,0,0,6.38,1.82v-14c0-3.25-.84-5.76-2.5-7.54s-4.06-2.67-7.19-2.67-5.53.89-7.19,2.67-2.5,4.29-2.5,7.54v6.85c2.12,1,4.24,1.91,6.38,2.81Z" transform="translate(-23.14 -103.15)" fill="#43525a"/><path d="M151.67,125.55v9.56c0,2.67-1.11,4-3.31,4s-3.31-1.33-3.31-4V123c-2.14-.9-4.26-1.85-6.38-2.81v14.5c0,3.24.83,5.76,2.5,7.54s4.06,2.66,7.19,2.66,5.53-.89,7.19-2.66,2.5-4.3,2.5-7.54v-7.34A61.44,61.44,0,0,1,151.67,125.55Z" transform="translate(-23.14 -103.15)" fill="#43525a"/><path d="M171.27,113.36H164.6v-4.52a16.65,16.65,0,0,0,4.38-.47,5.57,5.57,0,0,0,2.64-1.53,9.72,9.72,0,0,0,1.74-3.11h4.29v40.6h-6.38Z" transform="translate(-23.14 -103.15)" fill="#43525a"/><path d="M191.39,113c0-2.7,1.13-4.06,3.37-4.06s3.36,1.36,3.36,4.06v2.1a24.15,24.15,0,0,0,6.38-1.34v-.58c0-3.25-.84-5.73-2.52-7.46s-4.09-2.58-7.22-2.58-5.54.86-7.22,2.58-2.53,4.21-2.53,7.46v1.33c2.13.17,4.26.39,6.38.54Z" transform="translate(-23.14 -103.15)" fill="#43525a"/><path d="M198.35,133.43v1.1c0,3.06-1.19,4.58-3.59,4.58s-3.6-1.52-3.6-4.58v-3.25c-2.08-.65-4.17-1.29-6.26-1.87a15.75,15.75,0,0,0-.12,1.87v3.6q0,4.88,2.58,7.45t7.4,2.58q4.81,0,7.39-2.58t2.58-7.43C202.61,134.53,200.48,134,198.35,133.43Z" transform="translate(-23.14 -103.15)" fill="#43525a"/><path d="M191.16,130.64q0-4.57,3.6-4.58c2.4,0,3.59,1.53,3.59,4.58v2.79c2.13.58,4.26,1.1,6.38,1.47v-3.62a11.64,11.64,0,0,0-1-5.07,7,7,0,0,0-3.19-3.22v-.12c2.63-1.47,3.94-4.13,3.94-8v-1.1a24.15,24.15,0,0,1-6.38,1.34v1.09q0,4.06-3.36,4.06c-2.24,0-3.37-1.35-3.37-4.06v-1.14c-2.12-.15-4.25-.37-6.38-.54v.35a11.21,11.21,0,0,0,1,5,6.86,6.86,0,0,0,3,3V123a7,7,0,0,0-3.19,3.22,10.34,10.34,0,0,0-.87,3.2c2.09.58,4.18,1.22,6.26,1.87Z" transform="translate(-23.14 -103.15)" fill="#43525a"/><path d="M208.62,139.93a18.13,18.13,0,0,1,1.39-7.46,25.7,25.7,0,0,1,5-6.87,30.24,30.24,0,0,0,4.9-6.44,12.06,12.06,0,0,0,1.36-5.57,5.8,5.8,0,0,0-.84-3.62,3,3,0,0,0-2.46-1q-3.32,0-3.31,4v4.34h-6v-3.94c0-3.28.81-5.81,2.44-7.57s4-2.64,7.07-2.64,5.45.88,7.08,2.64,2.43,4.29,2.43,7.57a16.14,16.14,0,0,1-1.76,7.25,35.66,35.66,0,0,1-6.12,8.12,24.75,24.75,0,0,0-3.83,4.9,8.55,8.55,0,0,0-1,4v.87h12.12v5.8H208.62Z" transform="translate(-23.14 -103.15)" fill="#43525a"/></svg>