<svg id="0a808bef-c6bd-48b7-8203-aed6ce8c93a5" data-name="objects" xmlns="http://www.w3.org/2000/svg" width="126.63" height="57" viewBox="0 0 126.63 57"><title>copper2</title><path d="M63.48,92.46v-.31H62.28l.31,2.31h.79l0-1,22.2-18.81-1-.1Z" transform="translate(-62.28 -37.45)" fill="#85e3e8" fill-rule="evenodd"/><path d="M127.9,76.82c.49,2.49,1,5,1.57,7.24,2.47,10,4.76,10.39,4.76,10.39H164L159.2,76.56C148.79,76.84,138.35,77,127.9,76.82Z" transform="translate(-62.28 -37.45)" fill="#85e3e8" fill-rule="evenodd"/><path d="M87.2,94.45H117s2.29-.35,4.75-10.39c.56-2.29,1.1-4.8,1.59-7.32-10.34-.22-20.66-.7-31-1.53Z" transform="translate(-62.28 -37.45)" fill="#85e3e8" fill-rule="evenodd"/><path d="M156.45,66l-.11-.09v0c-9.46-6.2-24.7-19.09-30.73-28.38-6,9.29-21.28,22.18-30.74,28.38v0l-.11.09-10.1,8.56,1,.1,8.91-7.56-2.19,8.16c10.3.83,20.62,1.31,31,1.53,1-5.08,1.79-10.18,2.29-13.48.49,3.32,1.31,8.46,2.3,13.56,10.45.14,20.89,0,31.3-.26l-2.54-9.51,10.92,9.26,1,0Z" transform="translate(-62.28 -37.45)" fill="#85e3e8" fill-rule="evenodd"/><path d="M187.72,92.46l-19.1-16.19-1,0,20.18,17.11.05,1h.79l.31-2.31H187.7Z" transform="translate(-62.28 -37.45)" fill="#85e3e8" fill-rule="evenodd"/></svg>