<svg id="ce79740d-bf28-476e-9083-2ea6ceb684ba" data-name="objects" xmlns="http://www.w3.org/2000/svg" width="92.26" height="48.36" viewBox="0 0 92.26 48.36"><title>copper</title><path d="M105.7,68.05l5.2.66-1.51,20.2.84.16,1.38-20.27c2.15.28,4.45.57,6.06.76l0,20.91,20.54,3.85-25.67-44c-9.45,14.25-23.3,34.79-23.3,34.79l13.85,2.6C103.48,83.93,104.48,74.21,105.7,68.05Z" transform="translate(-83.06 -47.9)" fill="#8cd0d8" fill-rule="evenodd"/><path d="M83.06,86l6.66-.83s9.41-11.76,16.1-21.88l-5.42-.38A263.93,263.93,0,0,1,83.06,86Z" transform="translate(-83.06 -47.9)" fill="#85e3e8" fill-rule="evenodd"/><path d="M137.7,62.21l6.6-.37A30.07,30.07,0,0,0,147,65.3q7.57,0,15.19-.32A153.41,153.41,0,0,1,152,49.43L110.18,47.9s-4,6.6-9.78,15l5.42.38a61.28,61.28,0,0,0,6.06-10.79c1.12,2.92,2.75,7,4.77,11.54,7.73.5,15.42.92,23.12,1.11A20.54,20.54,0,0,1,137.7,62.21Z" transform="translate(-83.06 -47.9)" fill="#85e3e8" fill-rule="evenodd"/><path d="M162.15,65q-7.62.36-15.19.32a9.83,9.83,0,0,0,1.11,1.06l-6,1.32s-1.09-1.07-2.27-2.5c-7.7-.19-15.39-.61-23.12-1.11,5.22,11.69,13,26.41,21.42,32.19l37.24-16.33A103.33,103.33,0,0,1,162.15,65Z" transform="translate(-83.06 -47.9)" fill="#85e3e8" fill-rule="evenodd"/></svg>