<svg id="efe7e90f-ca86-4892-a7dd-f698bb3248cb" data-name="objects" xmlns="http://www.w3.org/2000/svg" width="97.61" height="40.6" viewBox="0 0 97.61 40.6"><title>david</title><path d="M91.72,122.65v11.94a4.45,4.45,0,0,1-.84,3,3.11,3.11,0,0,1-2.41.92H85.22v-16c-2.13,0-4.26,0-6.38.12v21.7h9.75q4.75,0,7.13-2.55t2.38-7.48V123C96,122.85,93.85,122.73,91.72,122.65Z" transform="translate(-78.84 -103.73)" fill="#43525a"/><path d="M85.22,109.53h3.25a3.08,3.08,0,0,1,2.41.93,4.45,4.45,0,0,1,.84,3v9.17c2.13.08,4.25.2,6.38.34v-9.22q0-4.93-2.38-7.48t-7.13-2.56H78.84v18.9c2.12-.09,4.25-.12,6.38-.12Z" transform="translate(-78.84 -103.73)" fill="#43525a"/><path d="M119.32,125.06q-3-.36-6.08-.69l.93,6.51h-5.75l1-6.92c-1.79-.18-3.59-.35-5.39-.51l-3.4,20.88h5.92l1.16-7.94h7.25v-.12l1.16,8.06h6.38Z" transform="translate(-78.84 -103.73)" fill="#43525a"/><path d="M111.21,110.81h.11l1.92,13.56q3.06.33,6.08.69l-3.47-21.33h-8.64L104,123.45c1.8.16,3.6.33,5.39.51Z" transform="translate(-78.84 -103.73)" fill="#43525a"/><path d="M122.23,103.73h6.43l4.18,31.5H133l4.17-31.5H143l-6.15,40.6h-8.47Z" transform="translate(-78.84 -103.73)" fill="#43525a"/><path d="M146.06,103.73h6.38v40.6h-6.38Z" transform="translate(-78.84 -103.73)" fill="#43525a"/><path d="M163.58,109.53h3.25a3.07,3.07,0,0,1,2.4.93,4.45,4.45,0,0,1,.84,3v4.26c2.15-.71,4.28-1.47,6.38-2.23v-1.74q0-4.93-2.37-7.48t-7.14-2.56H157.2V121a63.82,63.82,0,0,0,6.38-1.32Z" transform="translate(-78.84 -103.73)" fill="#43525a"/><path d="M170.07,117.74v16.85a4.45,4.45,0,0,1-.84,3,3.1,3.1,0,0,1-2.4.92h-3.25V119.69A63.82,63.82,0,0,1,157.2,121v23.32h9.74q4.76,0,7.14-2.55t2.37-7.48V115.51C174.35,116.27,172.22,117,170.07,117.74Z" transform="translate(-78.84 -103.73)" fill="#43525a"/></svg>