<svg id="fcaa49e8-81e1-4932-b6c9-3f165dc03886" data-name="objects" xmlns="http://www.w3.org/2000/svg" width="229.83" height="83.35" viewBox="0 0 229.83 83.35"><title>mask</title><path d="M137.79,642.65v-1.51l-10.67-2.07,4.6-9.26-5.55,1.93,6.34-11.18-3.65,1.2,6.19-10.58-3.33,1.2s6-10.79,7.45-14.26c1.48,3.47,7.46,14.26,7.46,14.26l-3.33-1.2,6.18,10.58-3.65-1.2,6.35,11.18-5.55-1.93,4.6,9.26-10.67,2.07v1.51h22.86V638.4l-12.11-2.35,5.22-10.49-6.3,2.18,7.2-12.68-4.14,1.36,7-12-3.78,1.36s6.78-12.24,8.45-16.17c1.68,3.93,8.46,16.17,8.46,16.17l-3.78-1.36,7,12-4.13-1.36,7.19,12.68-6.29-2.18,5.21,10.49-12.1,2.35v4.25H309.21V638.4l-12.1-2.35,5.22-10.49-6.3,2.18,7.2-12.68-4.14,1.36,7-12-3.78,1.36s6.78-12.24,8.45-16.17c1.68,3.93,8.46,16.17,8.46,16.17l-3.78-1.36,7,12-4.13-1.36,7.19,12.68-6.29-2.18,5.21,10.49-12.1,2.35v4.25h22.86v-1.51l-10.67-2.07,4.6-9.26-5.55,1.93,6.34-11.18-3.65,1.2,6.19-10.58-3.33,1.2s6-10.79,7.45-14.26c1.48,3.47,7.46,14.26,7.46,14.26l-3.33-1.2,6.18,10.58-3.65-1.2,6.35,11.18-5.55-1.93,4.6,9.26L338,641.14v1.51h14.54V591.54a4.84,4.84,0,0,0-2.73-3.56L245.84,560.14a40.36,40.36,0,0,0-16.48,0L125.42,588a4.83,4.83,0,0,0-2.74,3.56v51.11Z" transform="translate(-122.68 -559.29)" fill="#43525a" fill-rule="evenodd"/></svg>