<svg id="b19f487f-84ec-4cef-ab8c-709180fd439b" data-name="objects" xmlns="http://www.w3.org/2000/svg" width="237.31" height="175.71" viewBox="0 0 237.31 175.71"><title>outline</title><path d="M237.6,731.26a38,38,0,0,1-9.21-1L124.45,702.45a8.42,8.42,0,0,1-5.51-7.18V591.54a8.41,8.41,0,0,1,5.51-7.17l103.94-27.85a44.21,44.21,0,0,1,18.42,0l103.94,27.85a8.42,8.42,0,0,1,5.5,7.17V695.27a8.43,8.43,0,0,1-5.5,7.18L246.8,730.29A38,38,0,0,1,237.6,731.26Z" transform="translate(-118.94 -555.55)" fill="#a0cc3a" fill-rule="evenodd"/></svg>