<svg id="f08fe3b6-7eb3-4128-adf2-aeba4f2979b7" data-name="objects" xmlns="http://www.w3.org/2000/svg" width="133.98" height="43.2" viewBox="0 0 133.98 43.2"><title>sa7sse</title><path d="M60.37,146q-2.46-2.73-2.46-7.83v-2.4h6.24v2.88q0,4.08,3.42,4.08a3.21,3.21,0,0,0,2.55-1,4.81,4.81,0,0,0,.87-3.21,8.9,8.9,0,0,0-1.2-4.65,22.18,22.18,0,0,0-4.44-4.83,26.58,26.58,0,0,1-5.7-6.51A13.28,13.28,0,0,1,58,116q0-5,2.52-7.71t7.32-2.73q4.74,0,7.17,2.73t2.43,7.83v1.74H71.23v-2.16a4.82,4.82,0,0,0-.84-3.15,3,3,0,0,0-2.46-1q-3.3,0-3.3,4a7.93,7.93,0,0,0,1.23,4.26,23.51,23.51,0,0,0,4.47,4.8,24.7,24.7,0,0,1,5.7,6.54,14.52,14.52,0,0,1,1.56,6.9q0,5.16-2.55,7.92t-7.41,2.76Q62.83,148.77,60.37,146Z" transform="translate(-57.91 -105.57)" fill="#43525a"/><path d="M98.39,125.59a36.32,36.32,0,0,1-6.19-.43l1.29,9.09H87.55l1.34-9.64c-1.78-.33-3.58-.69-5.44-1l-4,24.56h6.12l1.2-8.22h7.5v-.12l1.2,8.34h6.6Z" transform="translate(-57.91 -105.57)" fill="#43525a"/><path d="M90.43,113.49h.12l1.65,11.67a36.32,36.32,0,0,0,6.19.43l-3.16-19.42H86.29l-2.84,17.44c1.86.31,3.66.67,5.44,1Z" transform="translate(-57.91 -105.57)" fill="#43525a"/><path d="M118.15,112.17H104.83v-6h19.8v5.76l-10.32,36.24h-6.72Z" transform="translate(-57.91 -105.57)" fill="#43525a"/><path d="M130.57,146q-2.46-2.73-2.46-7.83v-2.4h6.24v2.88q0,4.08,3.42,4.08a3.21,3.21,0,0,0,2.55-1,4.81,4.81,0,0,0,.87-3.21,8.9,8.9,0,0,0-1.2-4.65,22.18,22.18,0,0,0-4.44-4.83,26.58,26.58,0,0,1-5.7-6.51,13.28,13.28,0,0,1-1.62-6.57q0-5,2.52-7.71t7.32-2.73q4.74,0,7.17,2.73t2.43,7.83v1.74h-6.24v-2.16a4.82,4.82,0,0,0-.84-3.15,3,3,0,0,0-2.46-1q-3.3,0-3.3,4a7.93,7.93,0,0,0,1.23,4.26,23.51,23.51,0,0,0,4.47,4.8,24.7,24.7,0,0,1,5.7,6.54,14.52,14.52,0,0,1,1.56,6.9q0,5.16-2.55,7.92t-7.41,2.76Q133,148.77,130.57,146Z" transform="translate(-57.91 -105.57)" fill="#43525a"/><path d="M152.89,146q-2.46-2.73-2.46-7.83v-2.4h6.24v2.88q0,4.08,3.42,4.08a3.21,3.21,0,0,0,2.55-1,4.81,4.81,0,0,0,.87-3.21,8.9,8.9,0,0,0-1.2-4.65,22.18,22.18,0,0,0-4.44-4.83,26.58,26.58,0,0,1-5.7-6.51,13.28,13.28,0,0,1-1.62-6.57q0-5,2.52-7.71t7.32-2.73q4.74,0,7.17,2.73t2.43,7.83v1.74h-6.24v-2.16a4.82,4.82,0,0,0-.84-3.15,3,3,0,0,0-2.46-1q-3.3,0-3.3,4a7.93,7.93,0,0,0,1.23,4.26,23.51,23.51,0,0,0,4.47,4.8,24.7,24.7,0,0,1,5.7,6.54,14.52,14.52,0,0,1,1.56,6.9q0,5.16-2.55,7.92t-7.41,2.76Q155.35,148.77,152.89,146Z" transform="translate(-57.91 -105.57)" fill="#43525a"/><path d="M173.89,106.17h18v6h-11.4v11.1h9.06v6h-9.06v12.9h11.4v6h-18Z" transform="translate(-57.91 -105.57)" fill="#43525a"/></svg>