<svg id="ff4c95e1-197c-47a4-b49b-9afdd920c4e9" data-name="objects" xmlns="http://www.w3.org/2000/svg" width="114.2" height="128.44" viewBox="0 0 114.2 128.44"><title>silkscreen</title><path d="M76.13,127l-7.5-21.2h7.19l4.59,14h.12l4.71-14h6.45L84.19,127l7.88,22.2h-7.2l-5-15.13h-.12L74.7,149.17H68.26Z" transform="translate(-68.26 -21.35)" fill="#e6e7e8"/><path d="M95.29,105.77h6.82v43.4H95.29Z" transform="translate(-68.26 -21.35)" fill="#e6e7e8"/><path d="M107.19,105.77H114V143h11.22v6.2h-18Z" transform="translate(-68.26 -21.35)" fill="#e6e7e8"/><path d="M129.14,142.6h6.57v6.57h-6.57Z" transform="translate(-68.26 -21.35)" fill="#e6e7e8"/><path d="M142.16,147c-1.7-1.88-2.54-4.58-2.54-8.09V136.4h6.44v3q0,4.22,3.54,4.22a3.31,3.31,0,0,0,2.63-1,5,5,0,0,0,.9-3.32,9.19,9.19,0,0,0-1.24-4.81,23.09,23.09,0,0,0-4.59-5,27.64,27.64,0,0,1-5.89-6.72,13.8,13.8,0,0,1-1.67-6.79q0-5.14,2.6-8t7.57-2.82q4.89,0,7.41,2.82t2.51,8.09v1.8h-6.45v-2.23a5,5,0,0,0-.87-3.26,3.14,3.14,0,0,0-2.54-1q-3.41,0-3.41,4.15a8.21,8.21,0,0,0,1.27,4.41,24.74,24.74,0,0,0,4.62,5,25.73,25.73,0,0,1,5.89,6.75,15.09,15.09,0,0,1,1.61,7.13q0,5.34-2.63,8.19t-7.66,2.85Q144.7,149.79,142.16,147Z" transform="translate(-68.26 -21.35)" fill="#e6e7e8"/><path d="M163.86,105.77h18.6V112H170.68v11.47H180v6.2h-9.36V143h11.78v6.2h-18.6Z" transform="translate(-68.26 -21.35)" fill="#e6e7e8"/><path d="M106.66,34.16a3.42,3.42,0,0,1-.79-2.41V24.61a3.4,3.4,0,0,1,.79-2.41,3.5,3.5,0,0,1,4.57,0,3.4,3.4,0,0,1,.79,2.41V26h-2V24.48c0-.82-.35-1.24-1-1.24s-1,.42-1,1.24V31.9c0,.81.35,1.21,1,1.21s1-.4,1-1.21v-2h2v1.88a3.42,3.42,0,0,1-.79,2.41,3.5,3.5,0,0,1-4.57,0Z" transform="translate(-68.26 -21.35)" fill="#e6e7e8"/><path d="M114,34.16a3.42,3.42,0,0,1-.79-2.41V24.61A3.4,3.4,0,0,1,114,22.2a2.93,2.93,0,0,1,2.28-.85,3,3,0,0,1,2.29.85,3.45,3.45,0,0,1,.79,2.41V26h-2V24.48c0-.82-.34-1.24-1-1.24s-1,.42-1,1.24V31.9c0,.81.34,1.21,1,1.21s1-.4,1-1.21v-2h2v1.88a3.46,3.46,0,0,1-.79,2.41,3,3,0,0,1-2.29.85A2.93,2.93,0,0,1,114,34.16Z" transform="translate(-68.26 -21.35)" fill="#e6e7e8"/><path d="M121.27,34.16a3.46,3.46,0,0,1-.79-2.41V24.61a3.45,3.45,0,0,1,.79-2.41,3.51,3.51,0,0,1,4.58,0,3.44,3.44,0,0,1,.78,2.41V26h-2V24.48c0-.82-.35-1.24-1-1.24s-1.05.42-1.05,1.24V31.9c0,.81.35,1.21,1.05,1.21s1-.4,1-1.21v-2h2v1.88a3.46,3.46,0,0,1-.78,2.41,3.51,3.51,0,0,1-4.58,0Z" transform="translate(-68.26 -21.35)" fill="#e6e7e8"/><path d="M131.34,27.33l.44,3.09H129.9l.43-3.09h-1.78l-1.21,7.49h1.93l.38-2.6H132v0l.38,2.64h2.09l-1.22-7.49Z" transform="translate(-68.26 -21.35)" fill="#e6e7e8"/><path d="M130.81,23.85h0l.49,3.48h1.93l-.94-5.79H129.5l-.95,5.79h1.78Z" transform="translate(-68.26 -21.35)" fill="#e6e7e8"/><path d="M135.5,21.54h3l1.32,9.51h0l1.33-9.51h3V34.82h-2V24.76h0l-1.52,10.06h-1.75l-1.51-10.06h0V34.82H135.5Z" transform="translate(-68.26 -21.35)" fill="#e6e7e8"/><path d="M149.81,25.33v.93a1.44,1.44,0,0,1-.26,1,1,1,0,0,1-.77.28h-1V25.33h-2.08v9.49h2.08V29.41h1a3,3,0,0,0,2.33-.83,3.47,3.47,0,0,0,.78-2.45v-.8Z" transform="translate(-68.26 -21.35)" fill="#e6e7e8"/><path d="M147.79,23.43h1a1,1,0,0,1,.77.29,1.44,1.44,0,0,1,.26,1v.64h2.08v-.51a3.47,3.47,0,0,0-.78-2.45,3,3,0,0,0-2.33-.83h-3.07v3.79h2.08Z" transform="translate(-68.26 -21.35)" fill="#e6e7e8"/><path d="M85.45,52.36a6,6,0,0,1,.46-2.44,8.36,8.36,0,0,1,1.63-2.25,9.47,9.47,0,0,0,1.6-2.11,3.92,3.92,0,0,0,.45-1.82,1.91,1.91,0,0,0-.27-1.18,1,1,0,0,0-.81-.34c-.72,0-1.08.44-1.08,1.31V45h-2V43.67a3.52,3.52,0,0,1,.8-2.48,3.55,3.55,0,0,1,4.63,0,3.52,3.52,0,0,1,.8,2.48A5.18,5.18,0,0,1,91.1,46a11.59,11.59,0,0,1-2,2.65,8.46,8.46,0,0,0-1.26,1.61,2.86,2.86,0,0,0-.32,1.32v.28h4v1.9h-6Z" transform="translate(-68.26 -21.35)" fill="#e6e7e8"/><path d="M98.45,41.2a3.61,3.61,0,0,0-4.7,0,3.44,3.44,0,0,0-.82,2.47v1a2.65,2.65,0,0,0,2.09,1V43.53c0-.87.36-1.31,1.08-1.31s1.08.44,1.08,1.31V45.4a10.4,10.4,0,0,1,2.09-.27V43.67A3.44,3.44,0,0,0,98.45,41.2Z" transform="translate(-68.26 -21.35)" fill="#e6e7e8"/><path d="M97.18,50.78c0,.88-.36,1.31-1.08,1.31S95,51.66,95,50.78V45.7a2.65,2.65,0,0,1-2.09-1v6a3.46,3.46,0,0,0,.82,2.47,3.61,3.61,0,0,0,4.7,0,3.46,3.46,0,0,0,.82-2.47V45.13a10.4,10.4,0,0,0-2.09.27Z" transform="translate(-68.26 -21.35)" fill="#e6e7e8"/><path d="M161.29,43.67H159.1V42.19a5.11,5.11,0,0,0,1.44-.16,1.84,1.84,0,0,0,.86-.5,3.19,3.19,0,0,0,.57-1h1.4V53.8h-2.08Z" transform="translate(-68.26 -21.35)" fill="#e6e7e8"/><path d="M167.83,43.51q0-1.29,1.08-1.29c.73,0,1.09.43,1.09,1.29V45a8.17,8.17,0,0,1,2.08.15V43.67a3.48,3.48,0,0,0-.81-2.47,3.62,3.62,0,0,0-4.71,0,3.48,3.48,0,0,0-.81,2.47v.77a4,4,0,0,0,2.08.63Z" transform="translate(-68.26 -21.35)" fill="#e6e7e8"/><path d="M170,45v.84c0,.87-.36,1.31-1.09,1.31s-1.08-.44-1.08-1.31v-.8a4,4,0,0,1-2.08-.63V46a3.74,3.74,0,0,0,.58,2.26,2,2,0,0,0,1.73.77,1.94,1.94,0,0,0,1.9-1.15h0v2.54a2.1,2.1,0,0,1-.29,1.27,1,1,0,0,1-.87.36c-.72,0-1.08-.43-1.08-1.31V50.4h-2v.25a3.55,3.55,0,0,0,.8,2.48,3,3,0,0,0,2.32.86q3.18,0,3.18-3.45V45.18A8.17,8.17,0,0,0,170,45Z" transform="translate(-68.26 -21.35)" fill="#e6e7e8"/></svg>